<svg width="100%" viewBox="0 0 680 340" role="img" xmlns="http://www.w3.org/2000/svg">
  <title>Futuristic AI robot illustration</title>
  <desc>A sleek futuristic robot with glowing circuit lines, suitable for a GitHub profile banner</desc>
  <defs>
    <style>
      @keyframes pulse { 0%,100%{opacity:0.4} 50%{opacity:1} }
      @keyframes blink { 0%,90%,100%{opacity:1} 95%{opacity:0.1} }
      @keyframes scan { 0%{opacity:0.15} 50%{opacity:0.5} 100%{opacity:0.15} }
      .p1{animation:pulse 2s ease-in-out infinite}
      .p2{animation:pulse 2.4s ease-in-out infinite 0.4s}
      .p3{animation:pulse 1.8s ease-in-out infinite 0.8s}
      .blink{animation:blink 3s ease-in-out infinite}
      .scan{animation:scan 2.5s ease-in-out infinite}
    </style>
  </defs>

  <rect x="0" y="0" width="680" height="340" rx="16" fill="#0a0f1e"/>

  <line x1="0" y1="85" x2="680" y2="85" stroke="#1a2540" stroke-width="0.5"/>
  <line x1="0" y1="170" x2="680" y2="170" stroke="#1a2540" stroke-width="0.5"/>
  <line x1="0" y1="255" x2="680" y2="255" stroke="#1a2540" stroke-width="0.5"/>
  <line x1="170" y1="0" x2="170" y2="340" stroke="#1a2540" stroke-width="0.5"/>
  <line x1="340" y1="0" x2="340" y2="340" stroke="#1a2540" stroke-width="0.5"/>
  <line x1="510" y1="0" x2="510" y2="340" stroke="#1a2540" stroke-width="0.5"/>

  <line class="scan" x1="0" y1="170" x2="680" y2="170" stroke="#7c5cfc" stroke-width="1"/>

  <polyline fill="none" stroke="#1a3a6b" stroke-width="1" points="60,80 100,80 100,120 140,120"/>
  <polyline fill="none" stroke="#1a3a6b" stroke-width="1" points="40,160 90,160 90,200 130,200"/>
  <polyline fill="none" stroke="#1a3a6b" stroke-width="1" points="20,240 80,240 80,260 120,260"/>
  <circle class="p2" cx="140" cy="120" r="3" fill="#3b8bd4"/>
  <circle class="p3" cx="130" cy="200" r="3" fill="#534ab7"/>
  <circle class="p1" cx="120" cy="260" r="3" fill="#3b8bd4"/>
  <circle cx="100" cy="80" r="2" fill="#1a3a6b"/>
  <circle cx="90" cy="160" r="2" fill="#1a3a6b"/>
  <circle cx="80" cy="240" r="2" fill="#1a3a6b"/>

  <polyline fill="none" stroke="#1a3a6b" stroke-width="1" points="620,80 580,80 580,120 540,120"/>
  <polyline fill="none" stroke="#1a3a6b" stroke-width="1" points="640,160 590,160 590,200 550,200"/>
  <polyline fill="none" stroke="#1a3a6b" stroke-width="1" points="660,240 600,240 600,260 560,260"/>
  <circle class="p1" cx="540" cy="120" r="3" fill="#534ab7"/>
  <circle class="p2" cx="550" cy="200" r="3" fill="#3b8bd4"/>
  <circle class="p3" cx="560" cy="260" r="3" fill="#534ab7"/>

  <rect x="295" y="190" width="90" height="110" rx="8" fill="#0e1929" stroke="#2a4a7f" stroke-width="1"/>
  <rect x="308" y="205" width="64" height="50" rx="4" fill="#0d1526" stroke="#1a3a6b" stroke-width="0.5"/>
  <ellipse class="p1" cx="340" cy="230" rx="12" ry="12" fill="#7c5cfc" opacity="0.7"/>
  <ellipse cx="340" cy="230" rx="7" ry="7" fill="#b8a6ff" opacity="0.9"/>
  <circle class="p3" cx="318" cy="242" r="3" fill="#3b8bd4" opacity="0.8"/>
  <circle class="p2" cx="328" cy="242" r="3" fill="#3b8bd4" opacity="0.8"/>
  <circle class="p1" cx="338" cy="242" r="3" fill="#534ab7" opacity="0.8"/>
  <circle class="p3" cx="348" cy="242" r="3" fill="#3b8bd4" opacity="0.8"/>
  <circle class="p2" cx="358" cy="242" r="3" fill="#3b8bd4" opacity="0.8"/>
  <rect x="295" y="290" width="90" height="8" rx="2" fill="#1a2540" stroke="#2a4a7f" stroke-width="0.5"/>

  <rect x="328" y="177" width="24" height="16" rx="3" fill="#0e1929" stroke="#2a4a7f" stroke-width="0.5"/>

  <rect x="292" y="110" width="96" height="72" rx="14" fill="#0e1929" stroke="#3b5a9f" stroke-width="1.5"/>
  <rect x="337" y="98" width="6" height="16" rx="2" fill="#2a4a7f"/>
  <circle class="p1" cx="340" cy="96" r="5" fill="#7c5cfc" opacity="0.9"/>
  <rect x="280" y="124" width="14" height="30" rx="4" fill="#0e1929" stroke="#2a4a7f" stroke-width="1"/>
  <rect x="386" y="124" width="14" height="30" rx="4" fill="#0e1929" stroke="#2a4a7f" stroke-width="1"/>
  <circle class="p2" cx="287" cy="134" r="3" fill="#3b8bd4"/>
  <circle class="p3" cx="393" cy="134" r="3" fill="#534ab7"/>

  <rect x="306" y="128" width="28" height="18" rx="6" fill="#050d1a" stroke="#3b8bd4" stroke-width="1"/>
  <ellipse class="blink" cx="320" cy="137" rx="8" ry="6" fill="#3b8bd4" opacity="0.9"/>
  <ellipse cx="320" cy="137" rx="4" ry="3" fill="#aee3ff"/>
  <rect x="346" y="128" width="28" height="18" rx="6" fill="#050d1a" stroke="#7c5cfc" stroke-width="1"/>
  <ellipse class="blink" cx="360" cy="137" rx="8" ry="6" fill="#7c5cfc" opacity="0.9"/>
  <ellipse cx="360" cy="137" rx="4" ry="3" fill="#d4c8ff"/>

  <rect x="312" y="156" width="56" height="14" rx="4" fill="#050d1a" stroke="#1a3a6b" stroke-width="0.5"/>
  <line x1="318" y1="160" x2="318" y2="166" stroke="#2a4a7f" stroke-width="1"/>
  <line x1="325" y1="160" x2="325" y2="166" stroke="#2a4a7f" stroke-width="1"/>
  <line x1="332" y1="160" x2="332" y2="166" stroke="#3b5a9f" stroke-width="1"/>
  <line x1="340" y1="160" x2="340" y2="166" stroke="#3b5a9f" stroke-width="1"/>
  <line x1="348" y1="160" x2="348" y2="166" stroke="#3b5a9f" stroke-width="1"/>
  <line x1="355" y1="160" x2="355" y2="166" stroke="#2a4a7f" stroke-width="1"/>
  <line x1="362" y1="160" x2="362" y2="166" stroke="#2a4a7f" stroke-width="1"/>

  <rect x="258" y="198" width="38" height="80" rx="10" fill="#0e1929" stroke="#2a4a7f" stroke-width="1"/>
  <rect x="262" y="222" width="30" height="4" rx="2" fill="#1a3a6b"/>
  <rect x="262" y="232" width="30" height="4" rx="2" fill="#1a3a6b"/>
  <rect x="260" y="275" width="34" height="22" rx="8" fill="#0d1526" stroke="#2a4a7f" stroke-width="0.5"/>
  <circle class="p3" cx="272" cy="286" r="4" fill="#3b8bd4" opacity="0.6"/>

  <rect x="384" y="198" width="38" height="80" rx="10" fill="#0e1929" stroke="#2a4a7f" stroke-width="1"/>
  <rect x="388" y="222" width="30" height="4" rx="2" fill="#1a3a6b"/>
  <rect x="388" y="232" width="30" height="4" rx="2" fill="#1a3a6b"/>
  <rect x="386" y="275" width="34" height="22" rx="8" fill="#0d1526" stroke="#2a4a7f" stroke-width="0.5"/>
  <circle class="p2" cx="408" cy="286" r="4" fill="#534ab7" opacity="0.6"/>

  <rect x="304" y="300" width="32" height="28" rx="6" fill="#0e1929" stroke="#2a4a7f" stroke-width="1"/>
  <rect x="344" y="300" width="32" height="28" rx="6" fill="#0e1929" stroke="#2a4a7f" stroke-width="1"/>
  <rect x="299" y="324" width="40" height="10" rx="5" fill="#0d1526" stroke="#1a3a6b" stroke-width="0.5"/>
  <rect x="341" y="324" width="40" height="10" rx="5" fill="#0d1526" stroke="#1a3a6b" stroke-width="0.5"/>

  <rect class="p2" x="50" y="110" width="50" height="22" rx="4" fill="#0d1526" stroke="#534ab7" stroke-width="0.5"/>
  <text x="75" y="125" text-anchor="middle" font-family="monospace" font-size="9" fill="#8b7ef8">LLM</text>
  <rect class="p1" x="42" y="155" width="56" height="22" rx="4" fill="#0d1526" stroke="#1a3a6b" stroke-width="0.5"/>
  <text x="70" y="170" text-anchor="middle" font-family="monospace" font-size="9" fill="#5b9bd4">RAG</text>
  <rect class="p3" x="50" y="200" width="56" height="22" rx="4" fill="#0d1526" stroke="#534ab7" stroke-width="0.5"/>
  <text x="78" y="215" text-anchor="middle" font-family="monospace" font-size="9" fill="#8b7ef8">STT/TTS</text>
  <rect class="p2" x="46" y="245" width="62" height="22" rx="4" fill="#0d1526" stroke="#1a3a6b" stroke-width="0.5"/>
  <text x="77" y="260" text-anchor="middle" font-family="monospace" font-size="9" fill="#5b9bd4">AGENTS</text>

  <rect class="p3" x="580" y="110" width="56" height="22" rx="4" fill="#0d1526" stroke="#1a3a6b" stroke-width="0.5"/>
  <text x="608" y="125" text-anchor="middle" font-family="monospace" font-size="9" fill="#5b9bd4">NLP</text>
  <rect class="p1" x="574" y="155" width="62" height="22" rx="4" fill="#0d1526" stroke="#534ab7" stroke-width="0.5"/>
  <text x="605" y="170" text-anchor="middle" font-family="monospace" font-size="9" fill="#8b7ef8">MLOps</text>
  <rect class="p2" x="576" y="200" width="62" height="22" rx="4" fill="#0d1526" stroke="#1a3a6b" stroke-width="0.5"/>
  <text x="607" y="215" text-anchor="middle" font-family="monospace" font-size="9" fill="#5b9bd4">VOICE AI</text>
  <rect class="p3" x="572" y="245" width="72" height="22" rx="4" fill="#0d1526" stroke="#534ab7" stroke-width="0.5"/>
  <text x="608" y="260" text-anchor="middle" font-family="monospace" font-size="9" fill="#8b7ef8">DALILI</text>

  <line x1="100" y1="121" x2="258" y2="210" stroke="#534ab7" stroke-width="0.5" opacity="0.4"/>
  <line x1="98" y1="166" x2="258" y2="230" stroke="#3b8bd4" stroke-width="0.5" opacity="0.4"/>
  <line x1="106" y1="211" x2="258" y2="250" stroke="#534ab7" stroke-width="0.5" opacity="0.4"/>
  <line x1="108" y1="256" x2="295" y2="280" stroke="#3b8bd4" stroke-width="0.5" opacity="0.4"/>
  <line x1="580" y1="121" x2="422" y2="210" stroke="#3b8bd4" stroke-width="0.5" opacity="0.4"/>
  <line x1="574" y1="166" x2="422" y2="230" stroke="#534ab7" stroke-width="0.5" opacity="0.4"/>
  <line x1="576" y1="211" x2="422" y2="250" stroke="#3b8bd4" stroke-width="0.5" opacity="0.4"/>
  <line x1="572" y1="256" x2="385" y2="280" stroke="#534ab7" stroke-width="0.5" opacity="0.4"/>

  <rect x="0" y="0" width="680" height="340" rx="16" fill="none" stroke="#2a4a7f" stroke-width="1"/>
</svg>
